<!-- <?xml version="1.0" encoding="UTF-8" standalone="no" ?> -->
<!-- <!DOCTYPE svg PUBLIC "-//W3C//DTD SVG 1.1//EN" "http://www.w3.org/Graphics/SVG/1.1/DTD/svg11.dtd"> -->
<svg xmlns="http://www.w3.org/2000/svg" xmlns:xlink="http://www.w3.org/1999/xlink" version="1.1" width="400" height="400" viewBox="0 0 400 400" xml:space="preserve">
<desc>Created with Fabric.js 3.6.2</desc>
<defs>
</defs>
<g transform="matrix(0.78 0 0 0.78 200 200)"  >
<rect style="stroke: none; stroke-width: 1; stroke-dasharray: none; stroke-linecap: butt; stroke-dashoffset: 0; stroke-linejoin: miter; stroke-miterlimit: 4; fill: none; fill-rule: nonzero; opacity: 1;"  x="-128" y="-128" rx="0" ry="0" width="256" height="256" />
</g>
<g transform="matrix(0.78 0 0 0.78 140.63 221.88)"  >
<path style="stroke: rgb(0,0,0); stroke-width: 16; stroke-dasharray: none; stroke-linecap: round; stroke-dashoffset: 0; stroke-linejoin: round; stroke-miterlimit: 4; fill: none; fill-rule: nonzero; opacity: 1;"  transform=" translate(-52, -156)" d="M 32 104 H 80 a 0 0 0 0 1 0 0 V 208 a 0 0 0 0 1 0 0 H 32 a 8 8 0 0 1 -8 -8 V 112 A 8 8 0 0 1 32 104 Z" stroke-linecap="round" />
</g>
<g transform="matrix(0.78 0 0 0.78 221.03 190.63)"  >
<path style="stroke: rgb(0,0,0); stroke-width: 16; stroke-dasharray: none; stroke-linecap: round; stroke-dashoffset: 0; stroke-linejoin: round; stroke-miterlimit: 4; fill: none; fill-rule: nonzero; opacity: 1;"  transform=" translate(-154.92, -116)" d="M 80 104 l 40 -80 a 32 32 0 0 1 32 32 V 80 h 61.9 a 15.9 15.9 0 0 1 15.8 18 l -12 96 a 16 16 0 0 1 -15.8 14 H 80" stroke-linecap="round" />
</g>
</svg>